<?xml version="1.0" standalone="no"?><!DOCTYPE svg PUBLIC "-//W3C//DTD SVG 1.1//EN" "http://www.w3.org/Graphics/SVG/1.1/DTD/svg11.dtd"><svg t="1675691142507" class="icon" viewBox="0 0 1024 1024" version="1.1" xmlns="http://www.w3.org/2000/svg" p-id="2673" xmlns:xlink="http://www.w3.org/1999/xlink" width="200" height="200"><path d="M915.968 250.368a74.24 74.24 0 0 0-74.069333-74.069333h-54.954667V170.666667a17.066667 17.066667 0 0 0-34.133333 0v5.632h-94.72V170.666667a17.066667 17.066667 0 0 0-34.133334 0v5.632H529.066667V170.666667a17.066667 17.066667 0 0 0-34.133334 0v5.632h-94.890666V170.666667a17.066667 17.066667 0 1 0-34.133334 0v5.632h-94.72V170.666667a17.066667 17.066667 0 0 0-34.133333 0v5.632h-54.954667a74.24 74.24 0 0 0-74.069333 74.069333v580.266667A39.936 39.936 0 0 0 147.968 870.4h728.064a39.936 39.936 0 0 0 39.936-39.765333V329.898667v-1.706667-1.706667z m-142.336 358.4a51.2 51.2 0 0 0-51.2 51.2V768a39.765333 39.765333 0 0 1-5.632 0H159.232a17.066667 17.066667 0 0 1-17.066667-17.066667V346.965333h739.669334v256a44.032 44.032 0 0 1 0 6.485334z m83.968 34.133333l-101.034667 101.034667v-83.968a17.066667 17.066667 0 0 1 17.066667-17.066667zM182.101333 210.432h54.954667v5.802667a17.066667 17.066667 0 1 0 34.133333 0v-5.802667h94.72v5.802667a17.066667 17.066667 0 0 0 34.133334 0v-5.802667H494.933333v5.802667a17.066667 17.066667 0 1 0 34.133334 0v-5.802667h94.890666v5.802667a17.066667 17.066667 0 1 0 34.133334 0v-5.802667h94.72v5.802667a17.066667 17.066667 0 1 0 34.133333 0v-5.802667h54.954667a39.936 39.936 0 0 1 39.936 39.936v62.464H142.165333v-62.464a39.936 39.936 0 0 1 39.936-39.936zM876.032 836.266667H147.968a5.802667 5.802667 0 0 1-5.802667-5.632v-31.573334a52.053333 52.053333 0 0 0 17.066667 3.072H716.8a73.557333 73.557333 0 0 0 51.2-21.674666l113.493333-113.493334v163.669334a5.802667 5.802667 0 0 1-5.461333 5.632z" fill="#707070" p-id="2674"></path><path d="M204.8 266.24m-17.066667 0a17.066667 17.066667 0 1 0 34.133334 0 17.066667 17.066667 0 1 0-34.133334 0Z" fill="#707070" p-id="2675"></path><path d="M819.2 266.24m-17.066667 0a17.066667 17.066667 0 1 0 34.133334 0 17.066667 17.066667 0 1 0-34.133334 0Z" fill="#707070" p-id="2676"></path><path d="M318.634667 409.6h-91.136a17.066667 17.066667 0 0 0-17.066667 17.066667v90.965333a17.066667 17.066667 0 0 0 17.066667 17.066667h91.136a17.066667 17.066667 0 0 0 17.066666-17.066667V426.666667a17.066667 17.066667 0 0 0-17.066666-17.066667z m-17.066667 90.965333h-57.002667V443.733333h57.002667zM318.634667 580.266667h-91.136a17.066667 17.066667 0 0 0-17.066667 17.066666v90.965334a17.066667 17.066667 0 0 0 17.066667 17.066666h91.136a17.066667 17.066667 0 0 0 17.066666-17.066666V597.333333a17.066667 17.066667 0 0 0-17.066666-17.066666z m-17.066667 90.965333h-57.002667V614.4h57.002667zM385.024 455.168h62.464a17.066667 17.066667 0 0 0 0-34.133333h-62.464a17.066667 17.066667 0 0 0 0 34.133333zM549.888 489.301333h-164.864a17.066667 17.066667 0 0 0 0 34.133334h164.864a17.066667 17.066667 0 0 0 0-34.133334zM385.024 625.834667h62.464a17.066667 17.066667 0 0 0 0-34.133334h-62.464a17.066667 17.066667 0 0 0 0 34.133334zM549.888 659.968h-164.864a17.066667 17.066667 0 0 0 0 34.133333h164.864a17.066667 17.066667 0 0 0 0-34.133333z" fill="#707070" p-id="2677"></path></svg>